External Loads File
version=1
nRows=62
nColumns=13
Range=5.000000e-03-10 seconds
endheader
time 	forceRightX 	forceRightY 	forceRightZ 	pointRightX 	pointRightY 	pointRightZ 	forceLeftX 	forceLeftY 	forceLeftZ 	pointLeftX 	pointLeftY 	pointLeftZ 		
0.005000 13.749970 206.241050 -0.000000 0.316012 0.499987 -0.119281 -25.546920 180.461071 -0.000000 0.181430 0.172519 -0.359159
0.010000 13.568635 205.763738 -0.000000 0.316014 0.500005 -0.119291 -25.903245 180.182208 -0.000000 0.181414 0.172523 -0.359147
0.015000 13.382014 205.326208 -0.000000 0.316020 0.500008 -0.119284 -26.218484 179.982359 -0.000000 0.181427 0.172523 -0.359152
0.020000 12.883649 204.971399 -0.000000 0.316032 0.499894 -0.119290 -26.743558 179.837066 -0.000000 0.181418 0.170890 -0.359150
0.025000 13.182745 204.636651 -0.000000 0.316051 0.499914 -0.119283 -26.496086 179.887758 -0.000000 0.181183 0.172454 -0.359845
0.030000 13.069589 204.388629 -0.000000 0.316050 0.499912 -0.119297 -26.539040 179.960956 -0.000000 0.181120 0.172527 -0.359603
0.035000 12.907743 204.187695 -0.000000 0.316047 0.499917 -0.119304 -26.559993 180.086896 -0.000000 0.181125 0.172521 -0.359586
0.040000 12.773400 204.021167 -0.000000 0.316052 0.499923 -0.119328 -26.502124 180.258740 -0.000000 0.181129 0.172527 -0.359579
0.045000 12.662706 203.882948 -0.000000 0.316045 0.499920 -0.119329 -26.387445 180.443918 -0.000000 0.181129 0.172535 -0.359573
0.050000 12.589537 203.764413 -0.000000 0.316053 0.499917 -0.119336 -26.239333 180.589829 -0.000000 0.181136 0.172522 -0.359549
0.055000 12.564547 203.669960 -0.000000 0.316043 0.499913 -0.119337 -26.100168 180.636272 -0.000000 0.181143 0.172525 -0.359552
0.060000 12.611278 203.614689 -0.000000 0.316046 0.499914 -0.119343 -25.994462 180.547038 -0.000000 0.181150 0.172514 -0.359542
0.065000 12.727524 203.611074 -0.000000 0.316035 0.499916 -0.119342 -25.939983 180.324983 -0.000000 0.181155 0.172527 -0.359532
0.070000 12.904870 203.666850 -0.000000 0.316034 0.499910 -0.119352 -25.927957 180.009432 -0.000000 0.181159 0.172524 -0.359524
0.075000 13.112604 203.790582 -0.000000 0.316036 0.499933 -0.119350 -25.946840 179.655840 -0.000000 0.181165 0.172507 -0.359517
0.080000 13.338994 203.982877 -0.000000 0.316027 0.499929 -0.119361 -25.958058 179.330870 -0.000000 0.181174 0.172514 -0.359518
0.085000 13.552063 204.235767 -0.000000 0.316011 0.499933 -0.119354 -25.945812 179.101176 -0.000000 0.181182 0.172506 -0.359508
0.090000 13.754849 204.533172 -0.000000 0.316010 0.499937 -0.119357 -25.881561 179.023084 -0.000000 0.181197 0.172514 -0.359512
0.095000 13.930765 204.852615 -0.000000 0.316003 0.499932 -0.119366 -25.774935 179.115601 -0.000000 0.181205 0.172510 -0.359504
0.100000 14.057563 205.156475 -0.000000 0.315983 0.499934 -0.119373 -25.653402 179.350562 -0.000000 0.181212 0.172505 -0.359501
0.105000 14.132223 205.391303 -0.000000 0.315985 0.499934 -0.119362 -25.531534 179.656127 -0.000000 0.181231 0.172518 -0.359501
0.110000 14.120216 205.511359 -0.000000 0.315967 0.499941 -0.119346 -25.454256 179.935190 -0.000000 0.181244 0.172498 -0.359497
0.115000 14.059360 205.498068 -0.000000 0.315958 0.499936 -0.119370 -25.406660 180.122305 -0.000000 0.181255 0.172498 -0.359503
0.120000 13.959441 205.377452 -0.000000 0.315948 0.499943 -0.119361 -25.399215 180.197308 -0.000000 0.181267 0.172497 -0.359496
0.125000 13.852300 205.200120 -0.000000 0.315928 0.499942 -0.119343 -25.422170 180.178517 -0.000000 0.181277 0.172489 -0.359499
0.130000 13.785713 205.007807 -0.000000 0.315923 0.499938 -0.119362 -25.445537 180.096523 -0.000000 0.181279 0.172498 -0.359497
0.135000 13.740068 204.819925 -0.000000 0.315915 0.499952 -0.119348 -25.484969 179.974491 -0.000000 0.181292 0.172508 -0.359495
0.140000 13.714231 204.637839 -0.000000 0.315901 0.499953 -0.119351 -25.532298 179.836404 -0.000000 0.181307 0.172493 -0.359484
0.145000 13.718377 204.461701 -0.000000 0.315895 0.499954 -0.119360 -25.574124 179.702209 -0.000000 0.181318 0.172492 -0.359490
0.150000 13.733215 204.300801 -0.000000 0.315881 0.499956 -0.119353 -25.625256 179.585547 -0.000000 0.181335 0.172500 -0.359483
0.155000 13.763624 204.166743 -0.000000 0.315865 0.499961 -0.119343 -25.670433 179.505686 -0.000000 0.181334 0.172492 -0.359489
0.160000 13.802155 204.062621 -0.000000 0.315865 0.499975 -0.119368 -25.699076 179.476341 -0.000000 0.181344 0.172491 -0.359481
0.165000 13.824170 203.978151 -0.000000 0.315859 0.499971 -0.119348 -25.727170 179.481712 -0.000000 0.181380 0.172482 -0.359482
0.170000 13.857648 203.894045 -0.000000 0.315849 0.499980 -0.119350 -25.744107 179.470310 -0.000000 0.181380 0.172478 -0.359490
0.175000 13.880903 203.797225 -0.000000 0.315850 0.499997 -0.119363 -25.787467 179.372356 -0.000000 0.181403 0.172485 -0.359474
0.180000 13.902583 203.675637 -0.000000 0.315842 0.499981 -0.119357 -25.851919 179.160501 -0.000000 0.181413 0.172476 -0.359473
0.185000 13.899149 203.522095 -0.000000 0.315836 0.500012 -0.119357 -25.942409 178.852290 -0.000000 0.181424 0.172468 -0.359481
0.190000 13.877484 203.341833 -0.000000 0.315820 0.500014 -0.119359 -26.032182 178.494460 -0.000000 0.181431 0.172457 -0.359477
0.195000 13.845427 203.166145 -0.000000 0.315823 0.500008 -0.119363 -26.097551 178.140946 -0.000000 0.181458 0.172464 -0.359465
0.200000 13.802623 203.037916 -0.000000 0.315804 0.500022 -0.119358 -26.131797 177.833372 -0.000000 0.181468 0.172459 -0.359471
0.205000 13.761132 202.977567 -0.000000 0.315784 0.500032 -0.119363 -26.131811 177.580847 -0.000000 0.181493 0.172446 -0.359459
0.210000 13.735045 202.970016 -0.000000 0.315761 0.500044 -0.119376 -26.097751 177.362342 -0.000000 0.181509 0.172450 -0.359462
0.215000 13.707874 202.984470 -0.000000 0.315761 0.500055 -0.119367 -26.045834 177.155609 -0.000000 0.181538 0.172429 -0.359462
0.220000 13.667875 202.993238 -0.000000 0.315737 0.500067 -0.119370 -25.977687 176.962597 -0.000000 0.181555 0.172417 -0.359462
0.225000 13.613406 202.978723 -0.000000 0.315711 0.500079 -0.119368 -25.890480 176.804265 -0.000000 0.181583 0.172402 -0.359452
0.230000 13.567214 202.931135 -0.000000 0.315689 0.500086 -0.119364 -25.770675 176.712998 -0.000000 0.181614 0.172398 -0.359462
0.235000 13.506699 202.846416 -0.000000 0.315657 0.500101 -0.119365 -25.645880 176.712600 -0.000000 0.181690 0.172400 -0.359420
0.240000 13.490413 202.719485 -0.000000 0.315628 0.500099 -0.119375 -25.474240 176.812678 -0.000000 0.181717 0.172370 -0.359419
0.245000 13.496540 202.569548 -0.000000 0.315593 0.500109 -0.119368 -25.296582 176.978946 -0.000000 0.181748 0.172370 -0.359407
0.250000 13.533924 202.437431 -0.000000 0.315559 0.500123 -0.119378 -25.139225 177.159857 -0.000000 0.181777 0.172354 -0.359422
0.255000 13.607892 202.367703 -0.000000 0.315534 0.500132 -0.119372 -25.029748 177.294408 -0.000000 0.181817 0.172334 -0.359417
0.260000 13.708704 202.380094 -0.000000 0.315501 0.500144 -0.119369 -24.993541 177.328283 -0.000000 0.181858 0.172323 -0.359417
0.265000 13.832943 202.463130 -0.000000 0.315473 0.500160 -0.119373 -25.030344 177.239365 -0.000000 0.181886 0.172300 -0.359418
0.270000 13.953857 202.598174 -0.000000 0.315436 0.500182 -0.119369 -25.147181 177.030418 -0.000000 0.181920 0.172263 -0.359416
0.275000 14.095470 202.768605 -0.000000 0.315398 0.500193 -0.119375 -25.300239 176.723978 -0.000000 0.181939 0.172245 -0.359424
0.280000 14.244030 202.962180 -0.000000 0.315373 0.500203 -0.119381 -25.470161 176.362045 -0.000000 0.181968 0.172233 -0.359421
0.285000 14.374460 203.164896 -0.000000 0.315323 0.500217 -0.119378 -25.639369 176.015848 -0.000000 0.182001 0.172219 -0.359427
0.290000 14.488646 203.355877 -0.000000 0.315280 0.500236 -0.119370 -25.768077 175.759270 -0.000000 0.182042 0.172175 -0.359420
0.295000 14.589048 203.508514 -0.000000 0.315245 0.500245 -0.119380 -25.825169 175.633472 -0.000000 0.182082 0.172146 -0.359427
0.300000 14.651492 203.607038 -0.000000 0.315206 0.500265 -0.119382 -25.817518 175.645046 -0.000000 0.182129 0.172145 -0.359431
0.305000 14.679715 203.661389 -0.000000 0.315160 0.500283 -0.119380 -25.751244 175.779603 -0.000000 0.182154 0.172101 -0.359427
0.310000 14.687555 203.697135 -0.000000 0.315127 0.500295 -0.119383 -25.644282 175.999840 -0.000000 0.182204 0.172095 -0.359412
